<svg xmlns="http://www.w3.org/2000/svg" width="31.116" height="31.834" viewBox="0 0 31.116 31.834">
  <g id="Component_4_1" data-name="Component 4 – 1" transform="translate(1.058 1)">
    <g id="settings-outline">
      <path id="settings-outline-2" data-name="settings-outline" d="M62.924,52.478a4.461,4.461,0,1,0,4,4A4.461,4.461,0,0,0,62.924,52.478Zm10.742,4.44a10.758,10.758,0,0,1-.107,1.449l3.151,2.472a.754.754,0,0,1,.171.958L73.9,66.955a.754.754,0,0,1-.916.32l-3.13-1.26a1.123,1.123,0,0,0-1.057.122,11.465,11.465,0,0,1-1.5.874,1.111,1.111,0,0,0-.615.846L66.211,71.2a.772.772,0,0,1-.744.639H59.5a.774.774,0,0,1-.745-.618l-.468-3.333a1.12,1.12,0,0,0-.627-.852,10.824,10.824,0,0,1-1.5-.876,1.115,1.115,0,0,0-1.053-.119L51.985,67.3a.754.754,0,0,1-.916-.319l-2.981-5.158a.753.753,0,0,1,.171-.958l2.663-2.091a1.119,1.119,0,0,0,.418-.981c-.025-.291-.04-.581-.04-.871s.015-.576.04-.861a1.115,1.115,0,0,0-.423-.972l-2.662-2.091a.754.754,0,0,1-.165-.954l2.981-5.158a.754.754,0,0,1,.916-.32l3.13,1.26a1.123,1.123,0,0,0,1.057-.122,11.465,11.465,0,0,1,1.5-.874,1.111,1.111,0,0,0,.615-.846l.469-3.338A.772.772,0,0,1,59.5,42h5.963a.774.774,0,0,1,.745.618l.468,3.333a1.12,1.12,0,0,0,.627.852,10.826,10.826,0,0,1,1.5.876,1.115,1.115,0,0,0,1.053.119l3.129-1.26a.754.754,0,0,1,.916.319l2.981,5.158a.753.753,0,0,1-.171.958l-2.663,2.091a1.119,1.119,0,0,0-.422.981C73.65,56.337,73.665,56.627,73.665,56.917Z" transform="translate(-47.985 -42)" fill="none" stroke="#fff" strokeLinecap="round" strokeLinejoin="round" strokeWidth="2"/>
    </g>
  </g>
</svg>
